<svg width="1024" height="1024" version="1.1" xmlns="http://www.w3.org/2000/svg" desc="Created with imagetracer.js version 0.2.1" ><path fill="rgb(0,0,0)" stroke="rgb(0,0,0)" stroke-width="1" opacity="0" d="M 0 0 L 1024 0 L 1024 1024 L 0 1024 L 0 0 Z M 221 236 L 206 240 L 198 245 L 185 260 L 181 273 L 181 286 L 186 300 L 261 428 L 262 432 Q 226 454 196 481 Q 134 536 94 612 L 76 650 L 60 695 L 53 721 L 52 730 L 50 734 L 49 746 L 45 764 L 45 778 L 46 778 L 973 778 L 973 763 L 962 708 L 951 673 L 936 636 L 922 608 L 897 567 Q 872 530 842 500 Q 805 461 757 433 L 758 428 L 833 300 L 838 286 Q 839 275 837 268 L 830 254 Q 824 245 814 240 L 799 236 L 786 237 L 771 244 L 759 257 L 688 381 L 680 393 L 650 382 L 633 378 L 626 375 L 617 374 L 613 372 Q 601 372 594 368 L 581 367 L 575 365 L 534 362 L 533 361 L 486 361 L 485 362 L 453 364 L 440 367 L 426 368 L 379 379 L 376 381 L 354 387 L 340 393 L 331 381 L 258 254 Q 251 244 240 239 L 228 236 L 221 236 Z " /><path fill="rgb(0,0,0)" stroke="rgb(0,0,0)" stroke-width="1" opacity="0" d="M 303.5 560 L 318.5 563 L 331 572.5 Q 336.7 579.3 339 589.5 L 339 608.5 Q 333.4 632.4 316.5 645 L 302.5 653 L 294.5 655 L 280.5 655 Q 266.3 651.8 259 641.5 Q 253.9 634.6 252 624.5 L 252 609.5 L 259 589.5 L 272.5 573 L 288.5 563 L 303.5 560 Z " /><path fill="rgb(0,0,0)" stroke="rgb(0,0,0)" stroke-width="1" opacity="0" d="M 711.5 560 L 719.5 560 L 731.5 563 Q 744.6 568.4 753 578.5 L 764 596.5 L 767 605.5 L 768 619.5 L 766 630.5 L 763 637.5 L 751.5 650 Q 742.7 656.2 726.5 655 L 717.5 653 L 699 642 L 684 620.5 L 680 606.5 L 680 591.5 Q 683.4 574.4 695.5 566 L 700.5 563 L 711.5 560 Z " /><path fill="rgb(255,255,255)" stroke="rgb(255,255,255)" stroke-width="1" opacity="1" d="M 220.5 236 L 227.5 236 L 239.5 239 Q 251.1 243.9 258 253.5 L 331 380.5 L 339.5 393 L 353.5 387 L 375.5 381 L 378.5 379 L 425.5 368 L 439.5 367 L 452.5 364 L 484.5 362 L 485.5 361 L 532.5 361 L 533.5 362 L 574.5 365 L 580.5 367 L 593.5 368 Q 601.2 371.8 612.5 372 L 616.5 374 L 625.5 375 L 632.5 378 L 649.5 382 L 679.5 393 L 688 380.5 L 759 256.5 L 770.5 244 L 785.5 237 L 798.5 236 L 813.5 240 Q 823.8 244.7 830 253.5 L 837 267.5 Q 839.4 274.6 838 285.5 L 833 299.5 L 758 427.5 L 757 433 Q 804.5 460.7 842 499.5 Q 872.2 530.3 897 566.5 L 922 607.5 L 936 635.5 L 951 672.5 L 962 707.5 L 973 762.5 L 973 778 L 45.5 778 L 45 777.5 L 45 763.5 L 49 745.5 L 50 733.5 L 52 729.5 L 53 720.5 L 60 694.5 L 76 649.5 L 94 611.5 Q 134.4 535.9 195.5 481 Q 226 453.5 262 431.5 L 261 427.5 L 186 299.5 L 181 285.5 L 181 272.5 L 185 259.5 L 197.5 245 L 205.5 240 L 220.5 236 Z M 304 560 L 289 563 L 273 573 L 259 590 L 252 610 L 252 625 Q 254 635 259 642 Q 266 652 281 655 L 295 655 L 303 653 L 317 645 Q 333 632 339 609 L 339 590 Q 337 579 331 573 L 319 563 L 304 560 Z M 712 560 L 701 563 L 696 566 Q 683 574 680 592 L 680 607 L 684 621 L 699 642 L 718 653 L 727 655 Q 743 656 752 650 L 763 638 L 766 631 L 768 620 L 767 606 L 764 597 L 753 579 Q 745 568 732 563 L 720 560 L 712 560 Z " /></svg>